<svg width="32" height="32" viewBox="0 0 32 32" fill="none" xmlns="http://www.w3.org/2000/svg">
<rect width="32" height="32" rx="8" fill="white"/>
<rect width="32" height="32" rx="8" fill="url(#paint0_linear_53_8)" fill-opacity="0.8"/>
<g filter="url(#filter0_d_53_8)">
<path d="M11.6852 23.0259C11.7222 23.0522 11.75 23.0894 11.7649 23.1322L12.1517 24.2969C12.3248 24.8175 12.7327 25.2253 13.2535 25.3984L14.4184 25.7866C14.4613 25.8015 14.4984 25.8293 14.5248 25.8662C14.5511 25.9032 14.5652 25.9474 14.5652 25.9927C14.5652 26.0381 14.5511 26.0823 14.5248 26.1193C14.4984 26.1562 14.4613 26.184 14.4184 26.1989L13.255 26.5871C12.9985 26.6729 12.7656 26.817 12.5744 27.0082C12.3832 27.1993 12.239 27.4323 12.1532 27.6886L11.7649 28.8533C11.75 28.8961 11.7222 28.9333 11.6852 28.9596C11.6483 28.9859 11.604 29 11.5587 29C11.5133 29 11.4691 28.9859 11.4321 28.9596C11.3952 28.9333 11.3673 28.8961 11.3525 28.8533L10.9642 27.6886C10.8784 27.4323 10.7342 27.1993 10.543 27.0082C10.3518 26.817 10.1188 26.6729 9.8624 26.5871L8.69743 26.1989C8.65458 26.184 8.61741 26.1562 8.59111 26.1193C8.56481 26.0823 8.55068 26.0381 8.55068 25.9927C8.55068 25.9474 8.56481 25.9032 8.59111 25.8662C8.61741 25.8293 8.65458 25.8015 8.69743 25.7866L9.8624 25.3984C10.3832 25.2253 10.7911 24.8175 10.9642 24.2969L11.3525 23.1322C11.3673 23.0894 11.3952 23.0522 11.4321 23.0259C11.4691 22.9996 11.5133 22.9855 11.5587 22.9855C11.604 22.9855 11.6483 22.9996 11.6852 23.0259Z" fill="white"/>
<path d="M24.9681 4.99857C25.0198 5.03538 25.0588 5.0874 25.0796 5.14738L25.6211 6.77793C25.8635 7.50683 26.4345 8.07774 27.1636 8.32L28.7945 8.86352C28.8545 8.88432 28.9066 8.92329 28.9434 8.97501C28.9802 9.02673 29 9.08864 29 9.15213C29 9.21562 28.9802 9.27753 28.9434 9.32925C28.9066 9.38098 28.8545 9.41995 28.7945 9.44074L27.1657 9.98426C26.8067 10.1043 26.4805 10.3061 26.2129 10.5737C25.9452 10.8413 25.7433 11.1674 25.6232 11.5263L25.0796 13.1569C25.0588 13.2169 25.0198 13.2689 24.9681 13.3057C24.9163 13.3425 24.8544 13.3623 24.7909 13.3623C24.7274 13.3623 24.6655 13.3425 24.6137 13.3057C24.562 13.2689 24.523 13.2169 24.5022 13.1569L23.9586 11.5263C23.8385 11.1674 23.6366 10.8413 23.3689 10.5737C23.1013 10.3061 22.7751 10.1043 22.4161 9.98426L20.7851 9.44074C20.7251 9.41995 20.6731 9.38098 20.6363 9.32925C20.5995 9.27753 20.5797 9.21562 20.5797 9.15213C20.5797 9.08864 20.5995 9.02673 20.6363 8.97501C20.6731 8.92329 20.7251 8.88432 20.7851 8.86352L22.4161 8.32C23.1452 8.07774 23.7162 7.50683 23.9586 6.77793L24.5022 5.14738C24.523 5.0874 24.562 5.03538 24.6137 4.99857C24.6655 4.96176 24.7274 4.94198 24.7909 4.94198C24.8544 4.94198 24.9163 4.96176 24.9681 4.99857Z" fill="white"/>
<path d="M19.7332 11.0697C19.8367 11.1433 19.9147 11.2473 19.9563 11.3673L21.0394 14.6284C21.524 16.0862 22.6661 17.228 24.1243 17.7125L27.3862 18.7996C27.5062 18.8412 27.6102 18.9191 27.6839 19.0225C27.7575 19.126 27.7971 19.2498 27.7971 19.3768C27.7971 19.5038 27.7575 19.6276 27.6839 19.731C27.6102 19.8345 27.5062 19.9124 27.3862 19.954L24.1285 21.041C23.4105 21.2812 22.7582 21.6848 22.2228 22.22C21.6875 22.7552 21.2838 23.4074 21.0436 24.1252L19.9563 27.3863C19.9147 27.5063 19.8367 27.6103 19.7332 27.6839C19.6298 27.7575 19.5059 27.7971 19.3789 27.7971C19.2519 27.7971 19.128 27.7575 19.0246 27.6839C18.9211 27.6103 18.8431 27.5063 18.8015 27.3863L17.7142 24.1252C17.474 23.4074 17.0703 22.7552 16.535 22.22C15.9996 21.6848 15.3473 21.2812 14.6293 21.041L11.3674 19.954C11.2474 19.9124 11.1433 19.8345 11.0697 19.731C10.9961 19.6276 10.9565 19.5038 10.9565 19.3768C10.9565 19.2498 10.9961 19.126 11.0697 19.0225C11.1433 18.9191 11.2474 18.8412 11.3674 18.7996L14.6293 17.7125C16.0875 17.228 17.2296 16.0862 17.7142 14.6284L18.8015 11.3673C18.8431 11.2473 18.9211 11.1433 19.0246 11.0697C19.128 10.996 19.2519 10.9565 19.3789 10.9565C19.5059 10.9565 19.6298 10.996 19.7332 11.0697Z" fill="white"/>
<path d="M12.1592 3.24213C11.9882 3.08277 11.762 2.99602 11.5283 3.00014C11.2946 3.00426 11.0716 3.09895 10.9063 3.26424C10.741 3.42954 10.6463 3.65254 10.6422 3.88626C10.6381 4.11999 10.7248 4.34619 10.8842 4.51721L16.0102 9.64325C16.0928 9.73189 16.1924 9.80298 16.3031 9.85229C16.4137 9.9016 16.5332 9.92811 16.6543 9.93025C16.7755 9.93239 16.8958 9.91011 17.0081 9.86473C17.1205 9.81936 17.2225 9.75182 17.3082 9.66615C17.3938 9.58048 17.4614 9.47844 17.5068 9.3661C17.5521 9.25376 17.5744 9.13344 17.5723 9.0123C17.5701 8.89117 17.5436 8.7717 17.4943 8.66104C17.445 8.55037 17.3739 8.45077 17.2853 8.36817L12.1592 3.24213ZM5.79229 4.5148C5.62288 4.34524 5.39306 4.24992 5.15337 4.2498C4.91369 4.24969 4.68377 4.3448 4.51421 4.5142C4.34464 4.68361 4.24932 4.91343 4.24921 5.15312C4.24909 5.39281 4.3442 5.62272 4.51361 5.79228L13.4613 14.7399C13.5445 14.8261 13.6441 14.8948 13.7542 14.942C13.8643 14.9892 13.9827 15.014 14.1025 15.015C14.2223 15.016 14.341 14.9931 14.4519 14.9477C14.5627 14.9023 14.6634 14.8353 14.7481 14.7505C14.8328 14.6658 14.8997 14.565 14.945 14.4541C14.9903 14.3432 15.0131 14.2244 15.012 14.1046C15.0109 13.9848 14.986 13.8665 14.9386 13.7564C14.8913 13.6464 14.8225 13.5469 14.7363 13.4637L5.79229 4.5148ZM4.51721 10.8842C4.34619 10.7248 4.11999 10.638 3.88627 10.6422C3.65254 10.6463 3.42954 10.741 3.26425 10.9063C3.09895 11.0716 3.00427 11.2946 3.00015 11.5283C2.99602 11.762 3.08278 11.9882 3.24214 12.1592L8.36817 17.2853C8.53919 17.4446 8.76539 17.5314 8.99911 17.5273C9.23284 17.5232 9.45584 17.4285 9.62113 17.2632C9.78643 17.0979 9.88111 16.8749 9.88523 16.6412C9.88936 16.4074 9.8026 16.1812 9.64324 16.0102L4.51721 10.8842Z" fill="white"/>
</g>
<defs>
<filter id="filter0_d_53_8" x="2" y="2.5" width="28" height="28" filterUnits="userSpaceOnUse" color-interpolation-filters="sRGB">
<feFlood flood-opacity="0" result="BackgroundImageFix"/>
<feColorMatrix in="SourceAlpha" type="matrix" values="0 0 0 0 0 0 0 0 0 0 0 0 0 0 0 0 0 0 127 0" result="hardAlpha"/>
<feOffset dy="0.5"/>
<feGaussianBlur stdDeviation="0.5"/>
<feComposite in2="hardAlpha" operator="out"/>
<feColorMatrix type="matrix" values="0 0 0 0 0.266667 0 0 0 0 0.266667 0 0 0 0 0.266667 0 0 0 0.25 0"/>
<feBlend mode="normal" in2="BackgroundImageFix" result="effect1_dropShadow_53_8"/>
<feBlend mode="normal" in="SourceGraphic" in2="effect1_dropShadow_53_8" result="shape"/>
</filter>
<linearGradient id="paint0_linear_53_8" x1="0.0920916" y1="32.94" x2="38.3836" y2="20.8243" gradientUnits="userSpaceOnUse">
<stop stop-color="#FFB800"/>
<stop offset="1" stop-color="#F21A38"/>
</linearGradient>
</defs>
</svg>
